<?xml version="1.0" standalone="no"?><!DOCTYPE svg PUBLIC "-//W3C//DTD SVG 1.1//EN" "http://www.w3.org/Graphics/SVG/1.1/DTD/svg11.dtd"><svg t="1731244361976" class="icon" viewBox="0 0 1024 1024" version="1.1" xmlns="http://www.w3.org/2000/svg" p-id="1517" xmlns:xlink="http://www.w3.org/1999/xlink" width="200" height="200"><path d="M517.9 609.2h308.2c3.3 0 6-2.7 6-6v-52c0-3.3-2.7-6-6-6H517.9c-3.3 0-6 2.7-6 6v52c0 3.3 2.7 6 6 6zM517.9 737h308.2c3.3 0 6-2.7 6-6v-52c0-3.3-2.7-6-6-6H517.9c-3.3 0-6 2.7-6 6v52c0 3.3 2.7 6 6 6z" p-id="1518"></path><path d="M960.2 831.7V394h-0.3V140c0-6.6-5.4-12-12-12H774c-3.3 0-6-2.7-6-6V69.9c0-3.3-2.7-6-6-6h-52c-3.3 0-6 2.7-6 6V122c0 3.3-2.7 6-6 6H326c-3.3 0-6-2.7-6-6V69.9c0-3.3-2.7-6-6-6h-52c-3.3 0-6 2.7-6 6V122c0 3.3-2.7 6-6 6H76c-6.6 0-12 5.4-12 12v743.7c0 6.6 5.4 12 12 12h872.2c6.6 0 12-5.4 12-12v-52z m-63.7-383.5v377.5c0 3.3-2.7 6-6 6H133.9c-3.3 0-6-2.7-6-6V453.8c0-3.3 2.7-6 6-6h762v0.4h0.6zM256 198v51.9c0 3.3 2.7 6 6 6h52c3.3 0 6-2.7 6-6V198c0-3.3 2.7-6 6-6h372c3.3 0 6 2.7 6 6v51.9c0 3.3 2.7 6 6 6h52c3.3 0 6-2.7 6-6V198c0-3.3 2.7-6 6-6h115.9c3.3 0 6 2.7 6 6v179.8c0 3.3-2.7 6-6 6h-756c-3.3 0-6-2.7-6-6V198c0-3.3 2.7-6 6-6h116c3.4 0 6.1 2.7 6.1 6z" p-id="1519"></path><path d="M278.4 646L246 605c-2.1-2.6-5.8-3-8.4-1l-40.8 32.3c-2.6 2.1-3 5.8-1 8.4l75.8 95.8 0.1 0.1 196.1-155.1c2.6-2.1 3-5.8 1-8.4l-32.3-40.8c-2.1-2.6-5.8-3-8.4-1L286.9 647c-2.6 2-6.4 1.6-8.5-1z" p-id="1520"></path></svg>