<?xml version="1.0" standalone="no"?><!DOCTYPE svg PUBLIC "-//W3C//DTD SVG 1.1//EN" "http://www.w3.org/Graphics/SVG/1.1/DTD/svg11.dtd"><svg t="1732618549710" class="icon" viewBox="0 0 1024 1024" version="1.1" xmlns="http://www.w3.org/2000/svg" p-id="2394" xmlns:xlink="http://www.w3.org/1999/xlink" width="200" height="200"><path d="M536.677 215.067l0.338 0.398 0.336 0.408 310.035 383.19a16 16 0 0 1 3.561 10.063c0 8.732-6.994 15.83-15.685 15.997l-0.315 0.003H660.473v256c0 17.673-14.326 32-32 32h-232c-17.672 0-32-14.327-32-32v-256H190.001a16 16 0 0 1-9.745-3.31l-0.32-0.251c-6.776-5.483-7.902-15.362-2.596-22.222l0.222-0.28 310.035-383.19a32 32 0 0 1 4.75-4.749c13.465-10.895 33.088-9.07 44.33 3.943zM855.99 112c4.45 0 8.009 3.41 8.009 7.579v56.842c0 4.168-3.56 7.579-8.009 7.579H168.009c-4.45 0-8.009-3.41-8.009-7.579V119.58c0-4.168 3.56-7.579 8.009-7.579z" p-id="2395"></path></svg>