<?xml version="1.0" standalone="no"?><!DOCTYPE svg PUBLIC "-//W3C//DTD SVG 1.1//EN" "http://www.w3.org/Graphics/SVG/1.1/DTD/svg11.dtd"><svg t="1731771268989" class="icon" viewBox="0 0 1077 1024" version="1.1" xmlns="http://www.w3.org/2000/svg" p-id="2364" xmlns:xlink="http://www.w3.org/1999/xlink" width="210.3515625" height="200"><path d="M1003.142737 0H74.805895A74.859789 74.859789 0 0 0 0 74.805895v723.536842A74.859789 74.859789 0 0 0 74.805895 873.094737h30.935579l2.048 113.879579A37.726316 37.726316 0 0 0 171.708632 1013.221053l145.515789-140.126316h686.08A74.805895 74.805895 0 0 0 1077.894737 798.342737V74.805895A74.859789 74.859789 0 0 0 1003.142737 0zM465.327158 797.642105l12.557474-264.08421h122.125473l12.557474 264.08421z m537.114947 0h-314.368L673.684211 494.053053a37.726316 37.726316 0 0 0-37.726316-35.94779H441.936842a37.726316 37.726316 0 0 0-37.726316 35.94779L389.820632 797.642105H301.810526a37.726316 37.726316 0 0 0-26.192842 10.778948l-93.938526 90.489263-1.13179-64.188632a37.726316 37.726316 0 0 0-37.726315-37.079579H75.452632V75.452632h926.989473z" p-id="2365"></path><path d="M339.536842 291.031579m-48.505263 0a48.505263 48.505263 0 1 0 97.010526 0 48.505263 48.505263 0 1 0-97.010526 0Z" p-id="2366"></path><path d="M722.189474 291.031579m-48.505263 0a48.505263 48.505263 0 1 0 97.010526 0 48.505263 48.505263 0 1 0-97.010526 0Z" p-id="2367"></path></svg>
