<?xml version="1.0" standalone="no"?><!DOCTYPE svg PUBLIC "-//W3C//DTD SVG 1.1//EN" "http://www.w3.org/Graphics/SVG/1.1/DTD/svg11.dtd"><svg t="1731763949831" class="icon" viewBox="0 0 1024 1024" version="1.1" xmlns="http://www.w3.org/2000/svg" p-id="1935" xmlns:xlink="http://www.w3.org/1999/xlink" width="200" height="200"><path d="M481.834667 140.501333a42.666667 42.666667 0 0 1 60.330666 0l213.333334 213.333334a42.666667 42.666667 0 0 1-60.330667 60.330666L512 230.997333 328.832 414.165333a42.666667 42.666667 0 0 1-60.330667-60.330666l213.333334-213.333334z m-213.333334 469.333334a42.666667 42.666667 0 0 1 60.330667 0L512 793.002667l183.168-183.168a42.666667 42.666667 0 0 1 60.330667 60.330666l-213.333334 213.333334a42.666667 42.666667 0 0 1-60.330666 0l-213.333334-213.333334a42.666667 42.666667 0 0 1 0-60.330666z" p-id="1936"></path></svg>