<?xml version="1.0" standalone="no"?><!DOCTYPE svg PUBLIC "-//W3C//DTD SVG 1.1//EN" "http://www.w3.org/Graphics/SVG/1.1/DTD/svg11.dtd"><svg t="1731249117705" class="icon" viewBox="0 0 1024 1024" version="1.1" xmlns="http://www.w3.org/2000/svg" p-id="10604" xmlns:xlink="http://www.w3.org/1999/xlink"><path d="M535.8 651.5c-155.6 0-282.1-126.5-282.1-282.1S380.2 87.2 535.8 87.2c155.6 0 282.1 126.6 282.1 282.1S691.3 651.5 535.8 651.5z m0-525.4c-134.1 0-243.2 109.1-243.2 243.2s109.1 243.2 243.2 243.2S779 503.4 779 369.3 669.9 126.1 535.8 126.1z" fill="#444444" p-id="10605"></path><path d="M535.8 725.8c-196.6 0-356.5-159.9-356.5-356.5S339.2 12.9 535.8 12.9s356.5 159.9 356.5 356.5-160 356.4-356.5 356.4z m0-674c-175.1 0-317.6 142.5-317.6 317.6S360.7 687 535.8 687c175.1 0 317.6-142.5 317.6-317.6S710.9 51.8 535.8 51.8z" fill="#444444" p-id="10606"></path><path d="M535 538.1h-0.2c-7.4-0.1-14.1-4.3-17.3-11l-36-74.7-81.9-12.7c-7.3-1.1-13.4-6.3-15.6-13.4-2.2-7.1-0.2-14.8 5.1-19.9l59.9-57.3-13.2-81.8c-1.2-7.3 1.9-14.7 7.9-18.9 6-4.3 14-4.8 20.5-1.3l73 39.3 73.7-37.9c6.6-3.4 14.5-2.7 20.5 1.7 5.9 4.4 8.9 11.8 7.6 19.1l-14.8 81.6 58.8 58.4c5.2 5.2 7.1 13 4.7 20-2.4 7-8.5 12.1-15.8 13.1l-82.2 11.1-37.4 74c-3.2 6.4-9.9 10.6-17.3 10.6z m-90.5-130.8l53.1 8.2c6.3 1 11.8 5 14.5 10.8l23.3 48.4 24.2-47.9c2.9-5.7 8.4-9.6 14.7-10.5l53.2-7.2-38.1-37.9c-4.5-4.5-6.6-11-5.4-17.3l9.6-52.8-47.8 24.5c-5.7 2.9-12.5 2.9-18.1-0.2L480.5 300l8.6 53c1 6.3-1.1 12.7-5.8 17.2l-38.8 37.1zM391.9 941.8c-0.7 0-1.3 0-2-0.1-7.3-0.8-13.5-5.6-16.2-12.4l-49.9-130.6L181 820.2c-7.9 1.2-15.5-2.5-19.5-9.2-4.1-6.7-3.7-15.2 1-21.6L294 610.1c3.2-4.4 8.2-7.3 13.7-7.8 5.4-0.5 10.9 1.2 15 4.9 50.1 44.9 111.6 72.6 177.7 79.9 6.6 0.7 12.5 4.8 15.4 10.9l14.1 29.1c3 6.1 2.5 13.3-1.1 19L408.3 932.9c-3.6 5.6-9.8 8.9-16.4 8.9z m-55.4-184c8 0 15.3 4.9 18.2 12.5l41.7 109.3L490 734.1l-4.7-9.8c-63.2-8.9-122.2-34.4-172.3-74.4l-91.5 124.9L333.6 758c1-0.2 1.9-0.2 2.9-0.2z" fill="#444444" p-id="10607"></path><path d="M637.4 1013.1h-0.5c-7.3-0.2-13.8-4.4-17-11L494.8 743.9c-3-6.1-2.5-13.3 1.1-19l17.5-27.2c3.7-5.7 10.1-9.3 16.7-8.9 1.3 0 2.5 0.1 3.8 0.2l1.8 0.1c69.8 0 136.3-22.4 192.4-64.8 4.3-3.2 9.9-4.5 15-3.6 5.3 0.9 10 4 13 8.5L883.2 822c3.7 5.6 4.2 12.7 1.5 18.7-2.8 6.1-8.5 10.3-15.1 11.2l-143.4 19.8-71.7 131.3c-3.4 6.3-10 10.1-17.1 10.1zM534.6 736.8l103.9 214.4L697 844.4c2.9-5.4 8.3-9.1 14.4-9.9L834 817.6l-99.1-150.2c-58 38.9-124.8 59.8-194.6 60.7l-5.7 8.7z" fill="#444444" p-id="10608"></path><path d="M512.3 754.9h-1.2c-7-0.4-13.3-4.6-16.3-10.9l-14.1-29.1c-3.1-6.4-2.5-13.9 1.6-19.7 4.1-5.8 10.9-8.8 18-8.1 9.1 1 18.9 1.6 29.8 1.8 7.1 0.1 13.5 4.1 16.8 10.3 3.3 6.2 3 13.8-0.8 19.7L528.6 746c-3.6 5.6-9.7 8.9-16.3 8.9z" fill="#444444" p-id="10609"></path></svg>
