<?xml version="1.0" standalone="no"?><!DOCTYPE svg PUBLIC "-//W3C//DTD SVG 1.1//EN" "http://www.w3.org/Graphics/SVG/1.1/DTD/svg11.dtd"><svg t="1731250240811" class="icon" viewBox="0 0 1024 1024" version="1.1" xmlns="http://www.w3.org/2000/svg" p-id="1546" xmlns:xlink="http://www.w3.org/1999/xlink" width="200" height="200"><path d="M544 85.312a32 32 0 0 0-64 0V128a32 32 0 0 0 64 0v-42.688zM512 266.688c-134.592 0-245.312 112.832-245.312 254.08 0 38.016 8 73.984 22.4 106.24a32 32 0 1 1-58.496 25.984 324.672 324.672 0 0 1-27.904-132.224c0-174.72 137.536-318.08 309.312-318.08s309.312 143.36 309.312 318.08c0 47.104-9.984 91.904-27.904 132.224a32 32 0 1 1-58.496-25.984c14.4-32.256 22.4-68.224 22.4-106.24 0-141.248-110.72-254.08-245.312-254.08zM371.2 677.568h281.472c4.672 0 9.6 0 13.696 0.256a54.4 54.4 0 0 1 17.408 3.648 54.848 54.848 0 0 1 31.808 65.6c-1.088 4.032-2.56 8.768-4.096 13.44l-1.216 3.84c-5.12 16.448-9.408 29.696-16.192 40.96a106.112 106.112 0 0 1-43.968 40.32l-2.56 13.568c-4.352 22.656-7.808 40.896-16 56a105.92 105.92 0 0 1-58.496 49.856c-16.32 5.632-34.752 5.632-56.64 5.568h-8.96c-21.888 0-40.32 0.064-56.64-5.568a105.92 105.92 0 0 1-58.432-49.856c-8.192-15.104-11.712-33.344-16-56l-2.56-13.568a106.048 106.048 0 0 1-43.968-40.32c-6.848-11.264-11.072-24.512-16.256-40.96l-1.216-3.84a262.272 262.272 0 0 1-4.032-13.44 54.848 54.848 0 0 1 31.808-65.6 54.336 54.336 0 0 1 17.408-3.648c4.096-0.256 8.96-0.256 13.696-0.256z m69.76 178.56c3.712 18.432 5.312 24.256 7.68 28.544 5.248 9.664 13.568 16.64 23.04 19.84 4.8 1.728 11.456 2.112 40.32 2.112 28.8 0 35.392-0.384 40.256-2.112a41.92 41.92 0 0 0 23.04-19.84c2.304-4.288 3.968-10.112 7.616-28.544H440.96z m-67.456-114.56l0.064 0.256c6.72 21.12 8.64 26.432 11.008 30.272a41.152 41.152 0 0 0 24.64 18.816c3.712 0.96 8.576 1.216 30.08 1.216h145.344c21.504 0 26.304-0.256 30.08-1.28a41.152 41.152 0 0 0 24.64-18.752c2.304-3.84 4.224-9.152 10.944-30.272l0.064-0.256H373.504zM970.624 512a32 32 0 0 1-32 32H896a32 32 0 0 1 0-64h42.624a32 32 0 0 1 32 32zM128 544a32 32 0 0 0 0-64h-42.688a32 32 0 1 0 0 64H128zM836.288 187.648a32 32 0 0 1 0 45.312l-30.208 30.08a32 32 0 0 1-45.248-45.184l30.208-30.208a32 32 0 0 1 45.248 0zM217.856 263.104a32 32 0 1 0 45.248-45.248l-30.144-30.144a32 32 0 1 0-45.248 45.248l30.144 30.144z" p-id="1547"></path></svg>