<?xml version="1.0" standalone="no"?><!DOCTYPE svg PUBLIC "-//W3C//DTD SVG 1.1//EN" "http://www.w3.org/Graphics/SVG/1.1/DTD/svg11.dtd"><svg t="1731247803018" class="icon" viewBox="0 0 1024 1024" version="1.1" xmlns="http://www.w3.org/2000/svg" p-id="40757" xmlns:xlink="http://www.w3.org/1999/xlink" width="200" height="200"><path d="M684.58427 281.88764a57.52809 57.52809 0 0 0-57.52809 57.52809v206.525843l-227.235955-230.11236a70.18427 70.18427 0 0 0-75.361798-14.957303A69.033708 69.033708 0 0 0 281.88764 367.029213v317.555057a57.52809 57.52809 0 0 0 115.05618 0V478.058427l230.11236 227.235955a69.033708 69.033708 0 0 0 115.05618-48.323595V339.41573a57.52809 57.52809 0 0 0-57.52809-57.52809z" fill="" p-id="40758"></path><path d="M799.640449 0H224.359551a172.58427 172.58427 0 0 0-172.58427 172.58427v678.83146a172.58427 172.58427 0 0 0 172.58427 172.58427h575.280898a172.58427 172.58427 0 0 0 172.58427-172.58427V172.58427a172.58427 172.58427 0 0 0-172.58427-172.58427z m57.52809 851.41573a57.52809 57.52809 0 0 1-57.52809 57.52809H224.359551a57.52809 57.52809 0 0 1-57.52809-57.52809V172.58427a57.52809 57.52809 0 0 1 57.52809-57.52809h575.280898a57.52809 57.52809 0 0 1 57.52809 57.52809z" fill="" p-id="40759"></path></svg>