<?xml version="1.0" standalone="no"?><!DOCTYPE svg PUBLIC "-//W3C//DTD SVG 1.1//EN" "http://www.w3.org/Graphics/SVG/1.1/DTD/svg11.dtd"><svg t="1731765222445" class="icon" viewBox="0 0 1024 1024" version="1.1" xmlns="http://www.w3.org/2000/svg" p-id="2089" xmlns:xlink="http://www.w3.org/1999/xlink" width="200" height="200"><path d="M477.637378 478.761991 173.96717 478.761991c-60.734246 0-110.173239-49.471738-110.173239-110.300129L63.793932 174.914752c0-60.903092 49.489134-110.449531 110.37176-110.449531l194.09151 0c60.288085 0 109.3812 49.124837 109.3812 109.507066L477.638401 478.761991zM174.164668 140.644227c-18.924002 0-34.280758 15.374152-34.280758 34.270525l0 193.546088c0 18.821671 15.307637 34.122145 34.082236 34.122145l227.579205 0L401.545352 173.972287c0-18.375509-14.910595-33.32806-33.290197-33.32806L174.164668 140.644227z" p-id="2090"></path><path d="M850.214978 478.761991l-303.471686 0L546.743292 174.841074c0-60.853973 49.489134-110.37483 110.272499-110.37483l193.397708 0c60.734246 0 110.173239 49.496298 110.173239 110.325711l0 193.47241C960.586738 429.190993 911.097604 478.761991 850.214978 478.761991zM622.834294 402.582985l227.381707 0c18.924002 0 34.280758-15.399735 34.280758-34.319643L884.496759 174.790932c0-18.821671-15.307637-34.146705-34.082236-34.146705L657.015791 140.644227c-18.824741 0-34.181497 15.349593-34.181497 34.195823L622.834294 402.582985z" p-id="2091"></path><path d="M366.869598 959.119317 174.36319 959.119317c-60.981886 0-110.569258-49.644677-110.569258-110.672612L63.793932 655.247518c0-60.903092 49.489134-110.449531 110.321618-110.449531l303.521828 0 0 303.425637C477.637378 909.375379 427.949722 959.119317 366.869598 959.119317zM174.11555 620.976994c-18.87386 0-34.230616 15.374152-34.230616 34.270525L139.884934 848.446705c0 19.020192 15.456017 34.493605 34.478256 34.493605L366.869598 882.94031c19.1215 0 34.676777-15.572674 34.676777-34.716686L401.546376 620.976994 174.11555 620.976994z" p-id="2092"></path><path d="M850.90878 959.119317 656.222729 959.119317c-60.387345 0-109.479437-49.149397-109.479437-109.581768L546.743292 544.797987l303.868729 0c60.634985 0 109.97574 49.397037 109.97574 110.12719l0 194.364733C960.586738 909.8461 911.395386 959.119317 850.90878 959.119317zM622.834294 620.976994l0 228.560556c0 18.424628 14.960737 33.402761 33.388435 33.402761l194.686051 0c18.526959 0 33.586956-15.101953 33.586956-33.650401L884.495736 654.925177c0-18.72241-15.208377-33.948183-33.884738-33.948183L622.834294 620.976994z" p-id="2093"></path></svg>