<?xml version="1.0" standalone="no"?><!DOCTYPE svg PUBLIC "-//W3C//DTD SVG 1.1//EN" "http://www.w3.org/Graphics/SVG/1.1/DTD/svg11.dtd"><svg t="1731771373139" class="icon" viewBox="0 0 1024 1024" version="1.1" xmlns="http://www.w3.org/2000/svg" p-id="2268" xmlns:xlink="http://www.w3.org/1999/xlink" width="200" height="200"><path d="M546.133333 324.266667v213.333333c0 17.066667-12.8 34.133333-34.133333 34.133333s-34.133333-12.8-34.133333-34.133333v-213.333333c0-17.066667 12.8-34.133333 34.133333-34.133334s34.133333 17.066667 34.133333 34.133334z" p-id="2269"></path><path d="M512 635.733333m-34.133333 0a34.133333 34.133333 0 1 0 68.266666 0 34.133333 34.133333 0 1 0-68.266666 0Z" p-id="2270"></path><path d="M896 136.533333H128c-17.066667 0-34.133333 17.066667-34.133333 34.133334v597.333333c0 17.066667 12.8 34.133333 34.133333 34.133333h162.133333V896c0 12.8 8.533333 21.333333 17.066667 29.866667 8.533333 4.266667 21.333333 4.266667 34.133333 0l183.466667-123.733334H896c17.066667 0 34.133333-12.8 34.133333-34.133333V170.666667c0-17.066667-17.066667-34.133333-34.133333-34.133334z m-34.133333 597.333334H512c-8.533333 0-12.8 0-17.066667 4.266666l-140.8 93.866667V768c0-17.066667-12.8-34.133333-34.133333-34.133333H162.133333V204.8h704v529.066667z" p-id="2271"></path></svg>