<?xml version="1.0" encoding="utf-8"?>
<svg width="128" height="128" viewBox="0 0 24 24" xmlns="http://www.w3.org/2000/svg">
  <defs/>
  <path fill="none" stroke-linecap="round" stroke-linejoin="round" stroke-width="2" d="M9 4v6l-2 4v2h10v-2l-2-4V4m-3 12v5M8 4h8" style=""/>
  <path d="M 10 10 C 10 10.155 9.964 10.308 9.894 10.447 L 8 14.236 L 8 15 L 16 15 L 16 14.236 L 14.106 10.447 C 14.036 10.308 14 10.155 14 10 L 14 5 L 10 5 Z M 16 9.764 L 17.894 13.553 C 17.964 13.692 18 13.845 18 14 L 18 16 C 18 16.552 17.552 17 17 17 L 13 17 L 13 21 C 13 21.552 12.552 22 12 22 C 11.448 22 11 21.552 11 21 L 11 17 L 7 17 C 6.448 17 6 16.552 6 16 L 6 14 C 6 13.845 6.036 13.692 6.106 13.553 L 8 9.764 L 8 5 C 7.448 5 7 4.552 7 4 C 7 3.448 7.448 3 8 3 L 16 3 C 16.552 3 17 3.448 17 4 C 17 4.552 16.552 5 16 5 Z" style="fill: rgba(0, 0, 0, 0.85);"/>
</svg>