<?xml version="1.0" standalone="no"?><!DOCTYPE svg PUBLIC "-//W3C//DTD SVG 1.1//EN" "http://www.w3.org/Graphics/SVG/1.1/DTD/svg11.dtd"><svg t="1733199613430" class="icon" viewBox="0 0 1024 1024" version="1.1" xmlns="http://www.w3.org/2000/svg" p-id="2320" xmlns:xlink="http://www.w3.org/1999/xlink" width="200" height="200"><path d="M426.666667 426.666667a42.368 42.368 0 0 1-4.522667 19.072L341.333333 607.402667V640h341.333334v-32.597333l-80.810667-161.664A42.368 42.368 0 0 1 597.333333 426.666667V213.333333h-170.666666z m256-10.069334l80.810666 161.664c2.986667 5.930667 4.522667 12.458667 4.522667 19.072v85.333334a42.666667 42.666667 0 0 1-42.666667 42.666666h-170.666666v170.666667a42.666667 42.666667 0 0 1-85.333334 0v-170.666667H298.666667a42.666667 42.666667 0 0 1-42.666667-42.666666v-85.333334c0-6.613333 1.536-13.141333 4.522667-19.072L341.333333 416.597333V213.333333a42.666667 42.666667 0 0 1 0-85.333333h341.333334a42.666667 42.666667 0 0 1 0 85.333333z" p-id="2321"></path></svg>