<?xml version="1.0" standalone="no"?><!DOCTYPE svg PUBLIC "-//W3C//DTD SVG 1.1//EN" "http://www.w3.org/Graphics/SVG/1.1/DTD/svg11.dtd"><svg t="1732713552497" class="icon" viewBox="0 0 1024 1024" version="1.1" xmlns="http://www.w3.org/2000/svg" p-id="2697" xmlns:xlink="http://www.w3.org/1999/xlink" width="200" height="200"><path d="M447 134.6z" p-id="2698"></path><path d="M867.7 344.7l-187.3-27.2c-7.8-1.1-14.6-6-18.1-13.1l-83.7-169.7c-12.5-25.3-37.7-40.9-65.8-40.9-28.2 0-53.4 15.7-65.8 40.9l-83.7 169.7c-3.5 7.1-10.3 12-18.1 13.1l-187.3 27.2c-15.9 2.3-30.8 9.9-42 21.4l-2.7 2.9-0.3 0.3c-25.4 29.3-23.5 73.5 4.3 100.6L252.7 602c5.7 5.5 8.2 13.5 6.9 21.2l-32 186.6c-2.7 15.8-0.1 32.4 7.4 46.6l1.8 3.3 0.2 0.3c13.7 22.8 38 35.6 63 35.6 11.5 0 23.2-2.7 34.1-8.4l167.5-88.1c7-3.7 15.3-3.7 22.3 0l167.5 88.1c14.2 7.5 30.8 10.1 46.6 7.4l3.6-0.7 0.3-0.1c38-8.7 62.6-45.6 56-84l-32-186.5c-1.3-7.8 1.2-15.7 6.9-21.2L908.3 470c11.5-11.2 19.1-26.1 21.4-42l0.4-3.6v-0.4c3.7-38.9-23.8-73.7-62.4-79.3zM622.8 586.3c-26.6 26.8-63.4 42.2-101.1 42.2h-0.4c-37.5 0-74.1-15.2-100.6-41.8-15.2-15.2-15.2-39.8 0-55s39.8-15.2 55 0c12 12.1 28.6 19 45.6 19h0.2c17.1 0 33.8-6.9 45.8-19.1 9.7-10.1 24.1-14.2 37.7-10.7 13.6 3.5 24.3 14.1 27.9 27.6s-0.3 28-10.1 37.8z" p-id="2699"></path></svg>